<svg width="206" height="126" viewBox="0 0 206 126" fill="none" xmlns="http://www.w3.org/2000/svg">
<path d="M0.230469 72.5C0.230469 61.1667 3.23047 50 9.23047 39C15.5638 28 23.5638 18.8333 33.2305 11.5C43.2305 3.83333 53.7305 -6.91414e-06 64.7305 -6.91414e-06C68.3971 -6.91414e-06 72.2305 1.49999 76.2305 4.49999C80.5638 7.5 82.7305 12.6667 82.7305 20C82.7305 27.3333 80.2305 31.8333 75.2305 33.5C70.5638 35.1666 66.5638 36.8333 63.2305 38.5C58.8971 40.8333 55.3971 43.6667 52.7305 47C50.3971 50 49.2305 53.8333 49.2305 58.5C49.2305 61.8333 50.8971 65 54.2305 68C57.8971 71 62.5638 72.5 68.2305 72.5C70.2305 72.5 72.5638 72.3333 75.2305 72C77.8971 71.3333 80.2305 70.3333 82.2305 69C85.8971 70.3333 88.8971 72.3333 91.2305 75C93.5638 77.6667 94.7305 81.8333 94.7305 87.5C94.7305 97.8333 89.8971 106.833 80.2305 114.5C70.8971 121.833 59.8971 125.5 47.2305 125.5C32.8971 125.5 21.3971 120.667 12.7305 111C4.39714 101.333 0.230469 88.5 0.230469 72.5ZM110.73 72.5C110.73 61.1667 113.73 50 119.73 39C126.064 28 134.064 18.8333 143.73 11.5C153.73 3.83333 164.23 -6.91414e-06 175.23 -6.91414e-06C178.897 -6.91414e-06 182.73 1.49999 186.73 4.49999C191.064 7.5 193.23 12.6667 193.23 20C193.23 27.3333 190.73 31.8333 185.73 33.5C181.064 35.1666 177.064 36.8333 173.73 38.5C169.397 40.8333 165.897 43.6667 163.23 47C160.897 50 159.73 53.8333 159.73 58.5C159.73 61.8333 161.397 65 164.73 68C168.397 71 173.064 72.5 178.73 72.5C180.73 72.5 183.064 72.3333 185.73 72C188.397 71.3333 190.73 70.3333 192.73 69C196.397 70.3333 199.397 72.3333 201.73 75C204.064 77.6667 205.23 81.8333 205.23 87.5C205.23 97.8333 200.397 106.833 190.73 114.5C181.397 121.833 170.397 125.5 157.73 125.5C143.397 125.5 131.897 120.667 123.23 111C114.897 101.333 110.73 88.5 110.73 72.5Z" fill="#F1F1F1"/>
</svg>
